<svg width="8" height="15" viewBox="0 0 8 15" fill="none" xmlns="http://www.w3.org/2000/svg">
<path d="M2.44101 7.69497L7.64701 2.49497C7.82246 2.30851 7.91833 2.06099 7.91425 1.80499C7.91017 1.54899 7.80647 1.30466 7.62517 1.12388C7.44386 0.943094 7.19923 0.840097 6.94322 0.836754C6.68721 0.833411 6.43997 0.929986 6.25401 1.10597L0.354013 6.99997C0.175485 7.17877 0.0728266 7.41955 0.0674242 7.67215C0.0620219 7.92476 0.154292 8.16971 0.325013 8.35597L6.24801 14.291C6.43398 14.467 6.68121 14.5635 6.93722 14.5602C7.19323 14.5568 7.43786 14.4539 7.61917 14.2731C7.80047 14.0923 7.90417 13.848 7.90825 13.592C7.91233 13.336 7.81647 13.0884 7.64101 12.902L2.44101 7.69497Z" fill="#A3AC30"/>
</svg>
