<svg width="16" height="17" viewBox="0 0 16 17" fill="none" xmlns="http://www.w3.org/2000/svg">
<path d="M6.20289 14.6287C6.62738 14.5389 9.21398 14.5389 9.63846 14.6287C10.0013 14.7125 10.3938 14.9083 10.3938 15.3359C10.3727 15.743 10.1338 16.1039 9.80387 16.3331C9.37601 16.6666 8.87388 16.8779 8.34897 16.954C8.05866 16.9916 7.77342 16.9924 7.49324 16.954C6.96748 16.8779 6.46535 16.6666 6.03833 16.3322C5.70752 16.1039 5.46869 15.743 5.44759 15.3359C5.44759 14.9083 5.84001 14.7125 6.20289 14.6287ZM7.97081 0C9.73712 0 11.5414 0.838103 12.6132 2.22867C13.3086 3.12407 13.6276 4.01862 13.6276 5.40918V5.77094C13.6276 6.83738 13.9094 7.46596 14.5297 8.19032C14.9998 8.72397 15.15 9.40899 15.15 10.1522C15.15 10.8945 14.9061 11.5992 14.4175 12.1713C13.7778 12.8572 12.8756 13.295 11.9549 13.3712C10.6207 13.4849 9.28562 13.5807 7.93283 13.5807C6.5792 13.5807 5.24497 13.5234 3.91074 13.3712C2.98919 13.295 2.08705 12.8572 1.4482 12.1713C0.959579 11.5992 0.714844 10.8945 0.714844 10.1522C0.714844 9.40899 0.865904 8.72397 1.33512 8.19032C1.97481 7.46596 2.23811 6.83738 2.23811 5.77094V5.40918C2.23811 3.98099 2.59424 3.0471 3.3276 2.13289C4.41793 0.799618 6.16568 0 7.89486 0H7.97081Z" fill="black"/>
</svg>
