<svg width="19" height="18" viewBox="0 0 19 18" fill="none" xmlns="http://www.w3.org/2000/svg">
<path d="M14.146 3.72377C14.2561 3.71845 14.3599 3.67098 14.4359 3.5912C14.5119 3.51143 14.5543 3.40546 14.5543 3.29527C14.5543 3.18507 14.5119 3.07911 14.4359 2.99933C14.3599 2.91955 14.2561 2.87208 14.146 2.86677C13.9918 2.86697 13.8397 2.83151 13.7014 2.76316C13.5632 2.69482 13.4427 2.59544 13.3492 2.47278C13.2558 2.35013 13.192 2.20753 13.1628 2.05612C13.1336 1.90472 13.1398 1.74861 13.1809 1.60001C13.222 1.4514 13.297 1.31432 13.3999 1.19948C13.5028 1.08463 13.6308 0.99514 13.774 0.93799C13.9173 0.88084 14.0717 0.857582 14.2254 0.870033C14.3791 0.882485 14.5279 0.930307 14.66 1.00977H15.792C15.6399 0.717462 15.4129 0.470879 15.134 0.295321C14.8552 0.119762 14.5347 0.0215489 14.2054 0.0107614C13.8761 -2.61497e-05 13.5498 0.0769998 13.2601 0.233935C12.9704 0.390869 12.7276 0.622062 12.5568 0.903788C12.3859 1.18551 12.2931 1.50763 12.2878 1.83707C12.2825 2.16652 12.365 2.49144 12.5268 2.77848C12.6886 3.06553 12.9238 3.30436 13.2083 3.47048C13.4929 3.6366 13.8165 3.72402 14.146 3.72377Z" fill="#B3B3B3"/>
<path d="M9.82301 3.72377C9.88102 3.72657 9.93899 3.71756 9.99342 3.69729C10.0478 3.67703 10.0976 3.64592 10.1396 3.60585C10.1817 3.56579 10.2152 3.5176 10.238 3.46421C10.2609 3.41082 10.2727 3.35335 10.2727 3.29527C10.2727 3.23719 10.2609 3.17971 10.238 3.12632C10.2152 3.07294 10.1817 3.02475 10.1396 2.98468C10.0976 2.94462 10.0478 2.91351 9.99342 2.89324C9.93899 2.87297 9.88102 2.86396 9.82301 2.86677C9.66882 2.86697 9.51666 2.83151 9.37844 2.76317C9.24023 2.69482 9.11968 2.59544 9.02624 2.47278C8.9328 2.35013 8.86898 2.20753 8.83978 2.05612C8.81058 1.90472 8.81679 1.74861 8.85792 1.60001C8.89905 1.4514 8.97399 1.31432 9.07688 1.19948C9.17978 1.08463 9.30783 0.995141 9.45105 0.937991C9.59426 0.880841 9.74876 0.857583 9.90245 0.870034C10.0561 0.882485 10.2049 0.930308 10.337 1.00977H11.466C11.314 0.7175 11.0869 0.470943 10.8081 0.295388C10.5294 0.119833 10.2089 0.0216001 9.87963 0.0107696C9.55037 -6.09383e-05 9.22414 0.0768998 8.93443 0.233756C8.64472 0.390612 8.40195 0.621718 8.23103 0.903361C8.06011 1.185 7.96721 1.50705 7.96183 1.83645C7.95646 2.16585 8.03881 2.49076 8.20044 2.77783C8.36207 3.0649 8.59715 3.30381 8.88159 3.47004C9.16602 3.63627 9.48955 3.72384 9.819 3.72377H9.82301Z" fill="#B3B3B3"/>
<path d="M16.845 1.96796C16.8601 1.90501 16.8607 1.83944 16.8469 1.7762C16.833 1.71295 16.8051 1.65367 16.765 1.60278C16.725 1.55188 16.674 1.51071 16.6158 1.48234C16.5576 1.45397 16.4937 1.43914 16.429 1.43896H13.77C13.6828 1.51558 13.621 1.61696 13.5928 1.72959C13.5647 1.84222 13.5716 1.96076 13.6125 2.06939C13.6535 2.17802 13.7266 2.27159 13.8221 2.33762C13.9176 2.40364 14.0309 2.439 14.147 2.43896C14.3743 2.43896 14.5923 2.52925 14.753 2.68997C14.9137 2.85069 15.004 3.06867 15.004 3.29596C15.004 3.52325 14.9137 3.74124 14.753 3.90195C14.5923 4.06267 14.3743 4.15296 14.147 4.15296C13.8105 4.15323 13.478 4.07913 13.1735 3.93596C12.8689 3.79278 12.5997 3.58407 12.3852 3.32475C12.1707 3.06544 12.0162 2.76192 11.9326 2.43592C11.8491 2.10992 11.8386 1.76948 11.902 1.43896H9.445C9.35778 1.51558 9.29599 1.61696 9.26785 1.72959C9.23972 1.84222 9.24659 1.96076 9.28754 2.06939C9.32849 2.17802 9.40159 2.27159 9.49707 2.33762C9.59256 2.40364 9.70591 2.439 9.822 2.43896C10.0493 2.43896 10.2673 2.52925 10.428 2.68997C10.5887 2.85069 10.679 3.06867 10.679 3.29596C10.679 3.52325 10.5887 3.74124 10.428 3.90195C10.2673 4.06267 10.0493 4.15296 9.822 4.15296C9.48547 4.15323 9.15303 4.07913 8.84846 3.93596C8.5439 3.79278 8.27475 3.58407 8.06024 3.32475C7.84574 3.06544 7.69119 2.76192 7.60765 2.43592C7.52411 2.10992 7.51364 1.76948 7.577 1.43896H5.124C5.03678 1.51558 4.97498 1.61696 4.94685 1.72959C4.91872 1.84222 4.92559 1.96076 4.96654 2.06939C5.00749 2.17802 5.08059 2.27159 5.17607 2.33762C5.27156 2.40364 5.38491 2.439 5.501 2.43896C5.72829 2.43896 5.94628 2.52925 6.10699 2.68997C6.26771 2.85069 6.358 3.06867 6.358 3.29596C6.358 3.52325 6.26771 3.74124 6.10699 3.90195C5.94628 4.06267 5.72829 4.15296 5.501 4.15296C5.16447 4.15323 4.83203 4.07913 4.52747 3.93596C4.2229 3.79278 3.95374 3.58407 3.73924 3.32475C3.52473 3.06544 3.37019 2.76192 3.28665 2.43592C3.20311 2.10992 3.19265 1.76948 3.256 1.43896H3.005C2.90878 1.43895 2.81535 1.47128 2.73972 1.53077C2.66409 1.59026 2.61066 1.67344 2.58801 1.76696L1.923 4.50996H16.232L16.845 1.96796Z" fill="#B3B3B3"/>
<path d="M5.5 3.72377C5.61007 3.71845 5.71387 3.67098 5.78988 3.5912C5.8659 3.51143 5.9083 3.40546 5.9083 3.29527C5.9083 3.18507 5.8659 3.0791 5.78988 2.99933C5.71387 2.91955 5.61007 2.87208 5.5 2.86676C5.34581 2.86697 5.19366 2.83151 5.05544 2.76317C4.91722 2.69482 4.79668 2.59543 4.70324 2.47278C4.60979 2.35013 4.54598 2.20752 4.51678 2.05612C4.48758 1.90472 4.4938 1.74861 4.53493 1.60001C4.57606 1.4514 4.651 1.31432 4.75389 1.19948C4.85679 1.08463 4.98484 0.995139 5.12806 0.937989C5.27127 0.880839 5.42575 0.857581 5.57944 0.870032C5.73313 0.882483 5.88186 0.930308 6.014 1.00977H7.14601C6.99397 0.7175 6.76692 0.470941 6.48814 0.295386C6.20936 0.119831 5.8889 0.0216001 5.55963 0.0107696C5.23037 -6.09383e-05 4.90414 0.0768998 4.61443 0.233756C4.32472 0.390612 4.08195 0.621716 3.91104 0.903359C3.74012 1.185 3.64721 1.50704 3.64183 1.83645C3.63646 2.16585 3.71881 2.49076 3.88044 2.77783C4.04207 3.0649 4.27715 3.30381 4.56159 3.47004C4.84602 3.63627 5.16956 3.72384 5.499 3.72377H5.5Z" fill="#B3B3B3"/>
<path d="M16.86 9.75981V3.73682L15.548 9.1468C16.017 9.27495 16.4608 9.48227 16.86 9.75981Z" fill="#B3B3B3"/>
<path d="M14.422 8.99696C14.6589 8.99712 14.8954 9.01685 15.129 9.05595L16.129 4.93896H1.819L0.302002 11.195C0.286911 11.2579 0.286264 11.3235 0.300112 11.3867C0.31396 11.45 0.341943 11.5093 0.381964 11.5602C0.421985 11.611 0.473005 11.6522 0.531201 11.6806C0.589397 11.709 0.65326 11.7238 0.718002 11.724H10.428C10.7426 10.9207 11.2919 10.2308 12.0044 9.74437C12.7168 9.25792 13.5593 8.99747 14.422 8.99696ZM12.289 6.15295H13.428C13.5381 6.15827 13.6419 6.20575 13.7179 6.28552C13.7939 6.3653 13.8363 6.47127 13.8363 6.58147C13.8363 6.69166 13.7939 6.79762 13.7179 6.8774C13.6419 6.95717 13.5381 7.00465 13.428 7.00996H12.289C12.1789 7.00465 12.0751 6.95717 11.9991 6.8774C11.9231 6.79762 11.8807 6.69166 11.8807 6.58147C11.8807 6.47127 11.9231 6.3653 11.9991 6.28552C12.0751 6.20575 12.1789 6.15827 12.289 6.15295ZM4.004 10.438H2.861C2.80299 10.4408 2.74501 10.4318 2.69058 10.4115C2.63615 10.3912 2.58641 10.3601 2.54436 10.32C2.50231 10.28 2.46883 10.2318 2.44596 10.1784C2.42309 10.125 2.4113 10.0675 2.4113 10.0095C2.4113 9.95138 2.42309 9.8939 2.44596 9.84052C2.46883 9.78713 2.50231 9.73895 2.54436 9.69888C2.58641 9.65882 2.63615 9.62771 2.69058 9.60744C2.74501 9.58717 2.80299 9.57816 2.861 9.58096H4.004C4.06202 9.57816 4.11999 9.58717 4.17442 9.60744C4.22885 9.62771 4.2786 9.65882 4.32065 9.69888C4.36269 9.73895 4.39617 9.78713 4.41904 9.84052C4.44191 9.8939 4.45371 9.95138 4.45371 10.0095C4.45371 10.0675 4.44191 10.125 4.41904 10.1784C4.39617 10.2318 4.36269 10.28 4.32065 10.32C4.2786 10.3601 4.22885 10.3912 4.17442 10.4115C4.11999 10.4318 4.06202 10.4408 4.004 10.438ZM4.29 8.72395H3.147C3.03694 8.71863 2.93314 8.67118 2.85713 8.5914C2.78111 8.51162 2.73871 8.40565 2.73871 8.29546C2.73871 8.18526 2.78111 8.0793 2.85713 7.99953C2.93314 7.91975 3.03694 7.87228 3.147 7.86696H4.29C4.40007 7.87228 4.50386 7.91975 4.57988 7.99953C4.65589 8.0793 4.6983 8.18526 4.6983 8.29546C4.6983 8.40565 4.65589 8.51162 4.57988 8.5914C4.50386 8.67118 4.40007 8.71863 4.29 8.72395ZM4.861 7.00996H3.718C3.60794 7.00465 3.50414 6.95717 3.42812 6.8774C3.35211 6.79762 3.30971 6.69166 3.30971 6.58147C3.30971 6.47127 3.35211 6.3653 3.42812 6.28552C3.50414 6.20575 3.60794 6.15827 3.718 6.15295H4.861C4.97107 6.15827 5.07486 6.20575 5.15088 6.28552C5.22689 6.3653 5.2693 6.47127 5.2693 6.58147C5.2693 6.69166 5.22689 6.79762 5.15088 6.8774C5.07486 6.95717 4.97107 7.00465 4.861 7.00996ZM6.861 10.438H5.718C5.65999 10.4408 5.60201 10.4318 5.54758 10.4115C5.49315 10.3912 5.44341 10.3601 5.40136 10.32C5.35931 10.28 5.32583 10.2318 5.30296 10.1784C5.28009 10.125 5.2683 10.0675 5.2683 10.0095C5.2683 9.95138 5.28009 9.8939 5.30296 9.84052C5.32583 9.78713 5.35931 9.73895 5.40136 9.69888C5.44341 9.65882 5.49315 9.62771 5.54758 9.60744C5.60201 9.58717 5.65999 9.57816 5.718 9.58096H6.861C6.91902 9.57816 6.97699 9.58717 7.03142 9.60744C7.08585 9.62771 7.1356 9.65882 7.17765 9.69888C7.21969 9.73895 7.25317 9.78713 7.27604 9.84052C7.29891 9.8939 7.31071 9.95138 7.31071 10.0095C7.31071 10.0675 7.29891 10.125 7.27604 10.1784C7.25317 10.2318 7.21969 10.28 7.17765 10.32C7.1356 10.3601 7.08585 10.3912 7.03142 10.4115C6.97699 10.4318 6.91902 10.4408 6.861 10.438ZM7.147 8.72395H6.004C5.89394 8.71863 5.79014 8.67118 5.71413 8.5914C5.63811 8.51162 5.59571 8.40565 5.59571 8.29546C5.59571 8.18526 5.63811 8.0793 5.71413 7.99953C5.79014 7.91975 5.89394 7.87228 6.004 7.86696H7.147C7.25707 7.87228 7.36087 7.91975 7.43688 7.99953C7.51289 8.0793 7.5553 8.18526 7.5553 8.29546C7.5553 8.40565 7.51289 8.51162 7.43688 8.5914C7.36087 8.67118 7.25707 8.71863 7.147 8.72395ZM7.718 7.00996H6.575C6.46494 7.00465 6.36114 6.95717 6.28513 6.8774C6.20911 6.79762 6.16671 6.69166 6.16671 6.58147C6.16671 6.47127 6.20911 6.3653 6.28513 6.28552C6.36114 6.20575 6.46494 6.15827 6.575 6.15295H7.718C7.82807 6.15827 7.93187 6.20575 8.00788 6.28552C8.08389 6.3653 8.1263 6.47127 8.1263 6.58147C8.1263 6.69166 8.08389 6.79762 8.00788 6.8774C7.93187 6.95717 7.82807 7.00465 7.718 7.00996ZM9.718 10.438H8.575C8.51699 10.4408 8.45901 10.4318 8.40458 10.4115C8.35015 10.3912 8.30041 10.3601 8.25836 10.32C8.21631 10.28 8.18283 10.2318 8.15996 10.1784C8.13709 10.125 8.1253 10.0675 8.1253 10.0095C8.1253 9.95138 8.13709 9.8939 8.15996 9.84052C8.18283 9.78713 8.21631 9.73895 8.25836 9.69888C8.30041 9.65882 8.35015 9.62771 8.40458 9.60744C8.45901 9.58717 8.51699 9.57816 8.575 9.58096H9.718C9.77601 9.57816 9.83399 9.58717 9.88842 9.60744C9.94285 9.62771 9.9926 9.65882 10.0346 9.69888C10.0767 9.73895 10.1102 9.78713 10.133 9.84052C10.1559 9.8939 10.1677 9.95138 10.1677 10.0095C10.1677 10.0675 10.1559 10.125 10.133 10.1784C10.1102 10.2318 10.0767 10.28 10.0346 10.32C9.9926 10.3601 9.94285 10.3912 9.88842 10.4115C9.83399 10.4318 9.77601 10.4408 9.718 10.438ZM10.004 8.72395H8.861C8.75094 8.71863 8.64714 8.67118 8.57113 8.5914C8.49511 8.51162 8.45271 8.40565 8.45271 8.29546C8.45271 8.18526 8.49511 8.0793 8.57113 7.99953C8.64714 7.91975 8.75094 7.87228 8.861 7.86696H10.004C10.1141 7.87228 10.2179 7.91975 10.2939 7.99953C10.3699 8.0793 10.4123 8.18526 10.4123 8.29546C10.4123 8.40565 10.3699 8.51162 10.2939 8.5914C10.2179 8.67118 10.1141 8.71863 10.004 8.72395ZM10.575 7.00996H9.428C9.31794 7.00465 9.21414 6.95717 9.13812 6.8774C9.06211 6.79762 9.01971 6.69166 9.01971 6.58147C9.01971 6.47127 9.06211 6.3653 9.13812 6.28552C9.21414 6.20575 9.31794 6.15827 9.428 6.15295H10.571C10.6811 6.15827 10.7849 6.20575 10.8609 6.28552C10.9369 6.3653 10.9793 6.47127 10.9793 6.58147C10.9793 6.69166 10.9369 6.79762 10.8609 6.8774C10.7849 6.95717 10.6811 7.00465 10.571 7.00996H10.575ZM11.718 7.86696H12.861C12.9711 7.87228 13.0749 7.91975 13.1509 7.99953C13.2269 8.0793 13.2693 8.18526 13.2693 8.29546C13.2693 8.40565 13.2269 8.51162 13.1509 8.5914C13.0749 8.67118 12.9711 8.71863 12.861 8.72395H11.718C11.6079 8.71863 11.5041 8.67118 11.4281 8.5914C11.3521 8.51162 11.3097 8.40565 11.3097 8.29546C11.3097 8.18526 11.3521 8.0793 11.4281 7.99953C11.5041 7.91975 11.6079 7.87228 11.718 7.86696Z" fill="#B3B3B3"/>
<path d="M2.576 12.1519V13.2949C2.576 13.4086 2.6212 13.5178 2.70165 13.5982C2.78211 13.6787 2.89123 13.7238 3.005 13.7238H10.16C10.1058 13.1967 10.1496 12.6641 10.289 12.1529L2.576 12.1519Z" fill="#B3B3B3"/>
<path d="M17.86 1.43896H17.173C17.2486 1.56928 17.2883 1.71731 17.288 1.86796V10.1C17.7051 10.4756 18.0448 10.9291 18.288 11.435V1.86796C18.288 1.75435 18.2429 1.64539 18.1627 1.56496C18.0825 1.48454 17.9736 1.43923 17.86 1.43896Z" fill="#B3B3B3"/>
<path d="M14.422 9.4248C13.6592 9.4248 12.9135 9.65102 12.2792 10.0748C11.6449 10.4986 11.1505 11.101 10.8586 11.8058C10.5667 12.5106 10.4903 13.2861 10.6391 14.0343C10.7879 14.7825 11.1553 15.4697 11.6947 16.0091C12.2341 16.5485 12.9213 16.9159 13.6695 17.0647C14.4177 17.2135 15.1932 17.1371 15.898 16.8452C16.6028 16.5533 17.2052 16.0589 17.629 15.4246C18.0528 14.7903 18.279 14.0446 18.279 13.2818C18.279 12.7753 18.1793 12.2737 17.9854 11.8058C17.7916 11.3378 17.5075 10.9126 17.1493 10.5545C16.7912 10.1963 16.366 9.91222 15.898 9.71838C15.4301 9.52455 14.9285 9.4248 14.422 9.4248ZM14.85 16.2498V15.8498C14.8528 15.7918 14.8438 15.7338 14.8235 15.6794C14.8033 15.625 14.7722 15.5752 14.7321 15.5331C14.692 15.4911 14.6439 15.4576 14.5905 15.4348C14.5371 15.4119 14.4796 15.4001 14.4215 15.4001C14.3634 15.4001 14.306 15.4119 14.2526 15.4348C14.1992 15.4576 14.151 15.4911 14.1109 15.5331C14.0709 15.5752 14.0397 15.625 14.0195 15.6794C13.9992 15.7338 13.9902 15.7918 13.993 15.8498V16.2498C13.3526 16.1563 12.7595 15.8585 12.3019 15.4009C11.8443 14.9433 11.5465 14.3502 11.453 13.7098H11.853C11.911 13.7126 11.969 13.7036 12.0234 13.6833C12.0779 13.6631 12.1276 13.632 12.1697 13.5919C12.2117 13.5518 12.2452 13.5036 12.268 13.4502C12.2909 13.3968 12.3027 13.3394 12.3027 13.2813C12.3027 13.2232 12.2909 13.1657 12.268 13.1123C12.2452 13.0589 12.2117 13.0108 12.1697 12.9707C12.1276 12.9306 12.0779 12.8995 12.0234 12.8793C11.969 12.859 11.911 12.85 11.853 12.8528H11.453C11.5465 12.2124 11.8443 11.6193 12.3019 11.1617C12.7595 10.7041 13.3526 10.4063 13.993 10.3128V10.7128C13.9983 10.8229 14.0458 10.9267 14.1256 11.0027C14.2054 11.0787 14.3113 11.1211 14.4215 11.1211C14.5317 11.1211 14.6377 11.0787 14.7174 11.0027C14.7972 10.9267 14.8447 10.8229 14.85 10.7128V10.3128C15.4904 10.4063 16.0835 10.7041 16.5411 11.1617C16.9988 11.6193 17.2965 12.2124 17.39 12.8528H16.99C16.932 12.85 16.874 12.859 16.8196 12.8793C16.7652 12.8995 16.7154 12.9306 16.6734 12.9707C16.6313 13.0108 16.5978 13.0589 16.575 13.1123C16.5521 13.1657 16.5403 13.2232 16.5403 13.2813C16.5403 13.3394 16.5521 13.3968 16.575 13.4502C16.5978 13.5036 16.6313 13.5518 16.6734 13.5919C16.7154 13.632 16.7652 13.6631 16.8196 13.6833C16.874 13.7036 16.932 13.7126 16.99 13.7098H17.39C17.2967 14.3504 16.999 14.9437 16.5414 15.4015C16.0837 15.8593 15.4906 16.1572 14.85 16.2508V16.2498Z" fill="#B3B3B3"/>
<path d="M15.261 11.8365L14.337 12.7606L13.47 12.3275C13.369 12.2821 13.2543 12.2774 13.1499 12.3146C13.0455 12.3518 12.9596 12.428 12.9101 12.5271C12.8606 12.6262 12.8514 12.7407 12.8843 12.8464C12.9173 12.9522 12.99 13.0411 13.087 13.0946L14.23 13.6656C14.3105 13.7058 14.4016 13.7198 14.4904 13.7054C14.5792 13.6911 14.6613 13.6491 14.725 13.5856L15.868 12.4426C15.9421 12.361 15.982 12.254 15.9793 12.1438C15.9767 12.0336 15.9317 11.9287 15.8538 11.8508C15.7759 11.7728 15.6709 11.7279 15.5607 11.7252C15.4506 11.7226 15.3436 11.7624 15.262 11.8365H15.261Z" fill="#B3B3B3"/>
</svg>
